inDegrees=no
num_controls=7
num_derivatives=13
num_iterations=140
num_multipliers=7
num_parameters=0
num_slacks=7
num_states=26
objective=0.424787
objective_accelerations=0.058210
objective_balance=0.007171
objective_effort=0.035031
objective_height=0.323368
objective_ligament=0.001007
solver_duration=1751.866137
status=Solve_Succeeded
success=true
DataType=double
version=3
OpenSimVersion=4.5
endheader
time	/jointset/ground_pelvis/pelvis_tilt/value	/jointset/ground_pelvis/pelvis_tx/value	/jointset/ground_pelvis/pelvis_ty/value	/jointset/hip_l/hip_flexion_l/value	/jointset/hip_l/hip_adduction_l/value	/jointset/hip_l/hip_rotation_l/value	/jointset/back/lumbar_extension/value	/jointset/patellofemoral_l/patellar_flexion_l/value	/jointset/knee_l/knee_flexion_l/value	/jointset/knee_l/knee_adduction_l/value	/jointset/knee_l/knee_rotation_l/value	/jointset/ankle_l/ankle_angle_l/value	/jointset/subtalar_l/subtalar_angle_l/value	/jointset/ground_pelvis/pelvis_tilt/speed	/jointset/ground_pelvis/pelvis_tx/speed	/jointset/ground_pelvis/pelvis_ty/speed	/jointset/hip_l/hip_flexion_l/speed	/jointset/hip_l/hip_adduction_l/speed	/jointset/hip_l/hip_rotation_l/speed	/jointset/back/lumbar_extension/speed	/jointset/patellofemoral_l/patellar_flexion_l/speed	/jointset/knee_l/knee_flexion_l/speed	/jointset/knee_l/knee_adduction_l/speed	/jointset/knee_l/knee_rotation_l/speed	/jointset/ankle_l/ankle_angle_l/speed	/jointset/subtalar_l/subtalar_angle_l/speed	/forceset/tau_hip_flexion_l	/forceset/tau_hip_adduction_l	/forceset/tau_hip_rotation_l	/forceset/tau_knee_flexion_l	/forceset/tau_ankle_angle_l	/forceset/tau_subtalar_angle_l	/forceset/tau_lumbar_extension	lambda_cid13_p0	lambda_cid13_p1	lambda_cid13_p2	lambda_cid13_p3	lambda_cid13_p4	lambda_cid13_p5	lambda_cid14_p0	/jointset/ground_pelvis/pelvis_tilt/accel	/jointset/ground_pelvis/pelvis_tx/accel	/jointset/ground_pelvis/pelvis_ty/accel	/jointset/hip_l/hip_flexion_l/accel	/jointset/hip_l/hip_adduction_l/accel	/jointset/hip_l/hip_rotation_l/accel	/jointset/back/lumbar_extension/accel	/jointset/patellofemoral_l/patellar_flexion_l/accel	/jointset/knee_l/knee_flexion_l/accel	/jointset/knee_l/knee_adduction_l/accel	/jointset/knee_l/knee_rotation_l/accel	/jointset/ankle_l/ankle_angle_l/accel	/jointset/subtalar_l/subtalar_angle_l/accel	gamma_cid13_p0	gamma_cid13_p1	gamma_cid13_p2	gamma_cid13_p3	gamma_cid13_p4	gamma_cid13_p5	gamma_cid14_p0
1	-0.4720121296427927	-0.06438182888859455	0.5222765574280321	1.994358171879112	-0.2472667636056895	0.2939330919856136	-0.43627713312491	1.615514378927944	1.615514378927843	-0.1671619709845582	0.17452223390786	0.3186803036641261	0.08342930343290918	-0.01134373095783449	0.0008144069296540466	-0.003709005781480151	0.01793843931529018	0.001199687926839612	0.002185592665168536	0.0009625937671990866	0.007999934987564402	0.007999934987564511	0.001228845919149214	-1.67192292060259e-05	0.001807414462457362	0.002163573058206116	-0.3523452300631812	-0.01252758990797127	-0.0005009760128404613	-0.4064372307383801	0.07536298502948725	0.002192360080838675	0.3097921254435405	-24.31350191737124	6.165858521592927	-4.653241278347962	16.29868777003103	-749.0114849551192	-62.6846577886752	-0.03614953111939508	0.8648400942432281	-0.08633867454674984	2.195941980069762	-6.590298706109467	-0.9400254749233451	-2.38639093587611	-0.04985731462438849	-6.214795343811867	-6.214795343812014	-0.2515253892208383	0.02290900306205396	-0.7631223424090811	-1.470121317300506	-2.409038475653424e-10	1.629340965862856e-09	-9.908336549273033e-09	-1.510971503693077e-09	2.117787268831488e-09	-5.483196603465242e-09	1.427504500268811e-09
1.01	-0.4720824120560844	-0.06437799545859643	0.522349195023714	1.994208259907177	-0.2473009687837747	0.2938330860313996	-0.4362696878856611	1.615283904592187	1.615283904592119	-0.1671586551028034	0.1745220044295226	0.3186605108221447	0.08337867588877385	-0.002681876549600996	-4.411442347027313e-05	0.01823536426248433	-0.04794162954405352	-0.008041172385866923	-0.02218500672902026	0.0005137810647691163	-0.05408486308976249	-0.05408486308976358	-0.000566411589486277	-1.765577241937604e-05	-0.005767246256047038	-0.01228920582946852	-0.3525475228490006	-0.01249646199677033	-0.0005393455786047291	-0.4061158838431099	0.075039439938936	0.002268184070984062	0.3099381564812726	-24.40669013922954	6.138061562975049	-4.636035830410178	16.33207121894151	-748.9373017144512	-62.68909680007992	-0.03616052360358062	0.8714900511131994	-0.08506657102192208	2.193507974533497	-6.58997998747361	-0.9161921473292701	-2.462136317844718	-0.0442942007498553	-6.203828612298342	-6.203828612298459	-0.1436443111228267	-0.009882118302034565	-0.7548257677384437	-1.432882307777649	8.31243749179343e-10	2.000585323574161e-09	5.88814811257007e-08	6.512403850882158e-09	-1.207523509827007e-08	8.445839964071807e-08	-1.270727378047778e-08
1.02	-0.4720651495378939	-0.06438263878319486	0.5226412410114303	1.993398923444323	-0.2474275977325639	0.2934894257079129	-0.4362671109639751	1.614432880961135	1.6144328809611	-0.1671733154720225	0.1745221081586957	0.3185649338067449	0.08318351532910642	0.006165255338624267	-0.0008809439896598898	0.04017267262539649	-0.113946458868469	-0.01728506621397199	-0.04654528118938765	-1.106974556303655e-05	-0.1161099240713001	-0.1161099240713022	-0.002366404275638704	4.992227280707476e-05	-0.0133494202212445	-0.02674303004821151	-0.3527498156348184	-0.01246533408556945	-0.000577715144368972	-0.4057945369478398	0.07471589484838427	0.002344008061129323	0.3100841875190052	-24.5038694494839	6.111876844242251	-4.620130714680859	16.40347788739643	-748.9248542865258	-62.61613317283761	-0.03616509207554902	0.9018955902415831	-0.08200031715980932	2.194529643859297	-6.615250799123824	-0.9406321780030519	-2.384325949111858	-0.06506493620482935	-6.202847924654082	-6.202847924654123	-0.2524724247242257	0.03661192075001393	-0.7646249917476943	-1.470330383514176	3.288632076909805e-09	5.096812624518552e-09	1.281609713449736e-07	1.420830341789987e-08	-2.572329313569837e-08	1.683195563034151e-07	-2.561983795878944e-08
1.03	-0.4719588784308426	-0.06439555366904581	0.5231525123776454	1.991929549204444	-0.2476464836998301	0.2929023587493143	-0.4362699206978105	1.612961879691846	1.612961879691878	-0.1672059369664146	0.1745230428319441	0.3183932074919224	0.08284401830436203	0.01508071959525997	-0.001699690710037475	0.06206930310106033	-0.1798860079163559	-0.02647250812418646	-0.07085284615925323	-0.0005392608307643416	-0.1780833346894787	-0.1780833346894821	-0.004151045314161391	0.0001289001434456343	-0.02102591680864667	-0.04113518401127792	-0.3524255306036028	-0.01239173197794804	-0.0006922409749453018	-0.4055057708107319	0.07477503718824605	0.002483779924116854	0.3098562458907935	-24.44855129311926	6.023576077828026	-4.585593333354187	16.35347225827105	-748.5467543254287	-62.59573653667866	-0.03621140022125026	0.8851376930944548	-0.08145605210832182	2.185377166095965	-6.576947938319198	-0.9048869988546716	-2.451707196005016	-0.04495376607003859	-6.193530583670016	-6.193530583670175	-0.1404532280382973	-0.007726019154447185	-0.7736668086136432	-1.420504854459967	5.760155514140131e-09	8.220845873863296e-09	1.974454582228619e-07	2.190086139524862e-08	-3.936579031261981e-08	2.521186676642601e-07	-3.851993056462727e-08
